<?xml version="1.0" standalone="no"?>
<!DOCTYPE svg PUBLIC "-//W3C//DTD SVG 20010904//EN"
 "http://www.w3.org/TR/2001/REC-SVG-20010904/DTD/svg10.dtd">
<svg version="1.0" xmlns="http://www.w3.org/2000/svg"
 width="1024.000000pt" height="1024.000000pt" viewBox="0 0 1024.000000 1024.000000"
 preserveAspectRatio="xMidYMid meet">

<g transform="translate(0.000000,1024.000000) scale(0.100000,-0.100000)"
fill="#000000" stroke="none">
<path d="M4900 8190 c-243 -20 -534 -90 -752 -182 -192 -81 -445 -230 -603
-356 -297 -237 -557 -556 -732 -898 -95 -184 -148 -321 -223 -579 -17 -56 -49
-250 -60 -354 -18 -185 -9 -471 21 -617 18 -93 59 -105 184 -58 39 14 79 28
90 32 11 3 33 14 48 25 28 19 28 22 23 86 -15 169 -18 402 -7 496 21 177 44
293 88 435 51 163 160 412 207 470 7 8 25 38 41 65 46 82 217 303 313 406 314
333 732 564 1173 649 103 20 284 40 365 40 99 0 333 -24 429 -45 359 -77 757
-279 1026 -521 94 -85 223 -219 291 -303 104 -129 238 -343 295 -471 11 -25
31 -67 43 -95 58 -132 119 -350 145 -520 20 -124 24 -356 12 -547 -11 -151
-12 -149 114 -198 108 -42 157 -48 186 -24 74 62 92 578 32 904 -107 575 -433
1138 -891 1537 -276 241 -614 423 -998 537 -246 73 -598 108 -860 86z"/>
<path d="M4982 6990 c-170 -31 -327 -114 -453 -240 -106 -106 -174 -210 -326
-495 -125 -233 -141 -261 -224 -396 -212 -343 -499 -651 -775 -835 -67 -44
-235 -123 -359 -169 -162 -59 -182 -98 -118 -225 34 -65 80 -100 134 -100 93
0 401 139 594 267 152 101 201 140 326 260 266 255 477 555 719 1018 71 136
176 301 229 359 42 45 128 106 200 139 62 30 73 32 186 32 118 0 122 -1 196
-36 149 -71 265 -211 424 -509 98 -183 198 -359 245 -430 142 -216 286 -396
442 -553 249 -251 439 -376 765 -503 184 -72 248 -58 310 66 18 36 33 77 33
91 0 39 -33 74 -92 97 -239 91 -314 125 -400 177 -168 103 -290 208 -453 390
-204 226 -356 454 -535 800 -119 230 -184 341 -258 441 -124 167 -287 282
-473 334 -86 24 -257 34 -337 20z"/>
<path d="M6551 6418 c-173 -49 -229 -272 -100 -395 128 -121 344 -59 390 110
19 73 -8 165 -69 229 -29 31 -118 68 -160 67 -15 0 -42 -5 -61 -11z"/>
<path d="M4950 6024 c-82 -21 -157 -53 -233 -98 -134 -80 -229 -183 -423 -462
-158 -228 -295 -394 -455 -549 -245 -238 -456 -380 -731 -495 -100 -41 -128
-73 -128 -143 0 -87 66 -157 147 -157 47 0 144 37 301 115 269 133 490 300
706 534 131 142 321 381 423 531 82 121 181 242 236 288 197 162 448 162 649
-2 51 -42 168 -187 269 -336 210 -308 462 -590 710 -795 121 -99 367 -238 531
-299 112 -42 145 -44 206 -15 57 28 82 69 82 136 0 46 -4 56 -33 85 -19 18
-62 44 -98 57 -111 42 -258 118 -373 195 -302 201 -517 429 -844 896 -56 80
-130 180 -165 223 -112 140 -268 243 -433 287 -93 24 -260 26 -344 4z"/>
<path d="M5030 5301 c-118 -17 -251 -70 -359 -143 -71 -49 -193 -177 -336
-353 -228 -280 -401 -446 -638 -609 -128 -89 -148 -126 -107 -205 13 -27 33
-46 63 -60 41 -20 46 -20 88 -6 69 25 219 108 305 170 190 135 342 285 516
505 137 174 222 252 335 307 l98 47 115 1 c134 0 184 -14 282 -77 84 -54 180
-153 319 -328 64 -80 161 -190 217 -246 195 -195 466 -375 565 -376 79 -2 137
50 137 121 0 56 -21 81 -144 164 -159 108 -366 313 -596 591 -187 227 -242
284 -337 352 -152 110 -360 167 -523 145z"/>
<path d="M6875 3909 c-246 -31 -490 -167 -631 -350 -64 -83 -129 -210 -156
-304 -18 -66 -23 -105 -23 -220 0 -170 19 -255 91 -397 87 -172 208 -297 376
-388 277 -149 653 -147 963 5 174 86 287 201 301 308 15 108 -98 237 -227 261
-69 12 -125 -15 -208 -102 -111 -117 -212 -162 -361 -162 -250 0 -448 164
-489 405 -10 58 -9 82 3 140 20 93 22 99 74 178 77 118 216 200 364 212 154
14 280 -30 394 -137 109 -103 147 -115 246 -78 132 49 193 176 139 292 -29 65
-68 106 -154 166 -125 87 -276 144 -439 167 -114 16 -159 17 -263 4z"/>
<path d="M2972 3874 c-29 -14 -61 -39 -73 -55 -22 -32 -94 -180 -427 -879 -55
-117 -154 -324 -226 -472 -63 -131 -62 -188 2 -275 27 -37 95 -73 136 -73 108
0 174 62 269 253 l68 137 354 0 354 0 19 -27 c11 -16 47 -83 81 -150 41 -81
75 -133 101 -157 157 -142 388 19 316 220 -14 39 -113 244 -426 879 -95 193
-189 386 -210 431 -21 44 -52 97 -69 116 -69 79 -174 100 -269 52z m212 -817
c49 -96 86 -180 82 -186 -9 -13 -354 -15 -375 -2 -11 7 4 44 74 182 97 194
103 203 119 190 6 -5 51 -88 100 -184z"/>
<path d="M4337 3866 c-48 -18 -83 -49 -110 -101 -22 -40 -22 -42 -22 -765 l0
-725 25 -45 c67 -119 204 -143 309 -54 58 49 65 78 71 289 l5 190 85 3 c47 2
94 1 106 -2 12 -3 84 -61 161 -128 463 -405 477 -416 569 -405 64 7 115 38
152 91 26 40 32 58 32 104 0 97 -48 160 -242 316 -27 21 -48 43 -48 50 0 6 32
29 71 51 119 67 211 186 266 342 22 65 22 277 0 350 -61 201 -191 341 -385
415 l-87 33 -460 2 c-374 2 -467 0 -498 -11z m829 -411 c164 -49 218 -242 101
-363 -57 -60 -71 -62 -378 -62 l-279 0 0 213 c0 118 3 217 7 220 3 4 117 7
253 7 188 0 258 -3 296 -15z"/>
</g>
</svg>
